<?xml version="1.0" standalone="no"?>
<!DOCTYPE svg PUBLIC "-//W3C//DTD SVG 20010904//EN"
 "http://www.w3.org/TR/2001/REC-SVG-20010904/DTD/svg10.dtd">
<svg version="1.0" xmlns="http://www.w3.org/2000/svg"
 width="531.000000pt" height="470.000000pt" viewBox="0 0 531.000000 470.000000"
 preserveAspectRatio="xMidYMid meet">

<g transform="translate(0.000000,470.000000) scale(0.100000,-0.100000)"
fill="#000000" stroke="none">
<path d="M1870 4203 c-23 -76 -65 -208 -92 -293 -132 -417 -157 -497 -164
-522 l-6 -28 296 0 c229 0 297 3 300 13 2 6 12 50 23 97 16 69 24 86 39 88 17
2 23 -8 37 -65 14 -60 80 -311 107 -414 l10 -37 288 -5 c158 -3 326 -10 375
-17 48 -6 91 -10 96 -8 10 3 10 3 -229 763 -40 127 -95 305 -124 397 l-51 168
-431 0 -430 0 -44 -137z"/>
<path d="M2890 4307 c0 -2 13 -44 29 -93 16 -49 71 -217 121 -374 188 -585
282 -875 285 -878 2 -2 57 -15 122 -29 99 -21 323 -76 399 -98 22 -7 12 30
-153 560 -13 44 -39 130 -58 190 -18 61 -75 247 -127 415 l-94 305 -262 3
c-144 1 -262 1 -262 -1z"/>
<path d="M2385 2910 c-392 -25 -819 -124 -1225 -283 -138 -54 -576 -264 -568
-273 2 -1 46 13 98 33 319 120 797 231 1155 268 33 3 96 10 140 15 44 6 193
15 332 20 768 33 1584 -79 2383 -327 63 -20 122 -38 130 -40 33 -10 -89 62
-204 121 -455 233 -936 380 -1463 446 -179 23 -582 33 -778 20z"/>
<path d="M2554 2552 c3 -9 44 -161 91 -337 48 -176 93 -342 101 -370 8 -27 20
-74 26 -102 l12 -53 408 0 c224 0 408 3 408 8 0 4 -9 34 -19 67 -27 86 -157
501 -196 629 -19 60 -39 113 -45 116 -16 10 -233 29 -455 40 -104 5 -223 12
-263 14 -65 4 -72 3 -68 -12z"/>
<path d="M3517 2298 c30 -95 88 -276 128 -403 l73 -230 261 -3 260 -2 -13 42
c-8 24 -45 144 -84 268 -38 124 -83 268 -100 320 l-29 95 -144 27 c-79 14
-187 31 -239 37 -52 7 -111 14 -131 17 l-37 5 55 -173z"/>
<path d="M1207 2073 c-3 -5 -28 -84 -56 -178 -28 -93 -54 -178 -57 -187 -5
-17 15 -18 320 -18 l325 0 61 188 c33 104 60 191 60 195 0 10 -648 9 -653 0z"/>
<path d="M1934 1993 c-14 -49 -41 -136 -59 -195 l-33 -108 327 0 326 0 27 88
c14 48 42 135 61 195 l35 107 -329 0 -328 0 -27 -87z"/>
<path d="M2204 1561 c-52 -24 -108 -90 -124 -147 -24 -85 4 -197 62 -251 43
-41 116 -66 171 -60 140 17 230 150 198 292 -33 145 -179 224 -307 166z m155
-55 c48 -25 89 -81 97 -132 7 -49 -5 -106 -31 -139 -15 -19 -17 -18 -70 38
-56 59 -56 59 -82 42 l-25 -17 58 -59 c32 -32 55 -61 52 -64 -10 -10 -76 -18
-102 -11 -36 9 -96 65 -112 103 -35 82 -1 189 72 230 45 26 103 29 143 9z"/>
<path d="M2940 1345 l0 -235 30 0 30 0 0 235 0 235 -30 0 -30 0 0 -235z"/>
<path d="M3520 1345 l0 -235 30 0 30 0 0 235 0 235 -30 0 -30 0 0 -235z"/>
<path d="M1513 1492 c-17 -42 -59 -142 -92 -222 -34 -79 -61 -148 -61 -152 0
-4 13 -8 29 -8 25 0 31 7 50 50 l22 50 98 0 99 0 21 -50 c19 -44 25 -50 52
-50 37 0 41 -13 -61 230 -43 102 -81 195 -84 208 -14 44 -40 25 -73 -56z m85
-133 c18 -44 32 -84 32 -90 0 -5 -31 -9 -70 -9 -41 0 -70 4 -70 10 0 16 64
170 71 170 3 0 20 -36 37 -81z"/>
<path d="M1800 1340 l0 -230 125 0 125 0 0 30 0 29 -97 3 -98 3 0 198 0 197
-27 0 -28 0 0 -230z"/>
<path d="M2550 1403 c0 -189 7 -214 70 -265 77 -61 188 -42 249 43 l31 42 0
174 0 173 -30 0 -30 0 0 -167 c-1 -181 -3 -189 -57 -225 -50 -33 -122 -16
-157 36 -13 21 -16 54 -16 191 l0 165 -30 0 -30 0 0 -167z"/>
<path d="M3040 1340 l0 -230 30 0 30 0 0 125 c0 69 3 125 8 125 4 0 32 -56 62
-125 l55 -125 35 1 35 0 55 124 c30 69 58 125 63 125 4 0 7 -56 7 -125 l0
-125 30 0 30 0 0 230 0 230 -23 0 c-19 0 -32 -21 -91 -152 -38 -84 -76 -170
-84 -190 -8 -21 -18 -38 -22 -38 -3 0 -21 35 -40 78 -96 222 -138 302 -159
302 -21 0 -21 -4 -21 -230z"/>
<path d="M3791 1548 c-5 -13 -43 -106 -86 -208 -43 -102 -81 -195 -86 -207 -8
-21 -6 -23 24 -23 29 0 35 5 46 38 22 61 25 62 128 62 l94 0 22 -50 c20 -44
25 -50 54 -50 22 0 31 4 28 13 -3 6 -45 109 -94 227 -90 217 -110 249 -130
198z m66 -200 c17 -42 28 -79 25 -82 -7 -8 -127 -8 -134 0 -3 3 5 33 19 67 14
34 29 73 35 86 11 31 18 23 55 -71z"/>
<path d="M1506 991 c-11 -17 -186 -444 -186 -452 0 -5 13 -9 29 -9 25 0 31 6
49 50 l21 50 101 0 102 0 21 -50 c19 -45 24 -50 53 -50 l33 0 -51 123 c-28 67
-64 154 -80 192 -16 39 -37 89 -46 113 -15 40 -34 53 -46 33z m53 -206 c17
-41 31 -79 31 -85 0 -6 -29 -10 -70 -10 -38 0 -70 3 -70 7 0 15 63 163 70 163
4 0 21 -34 39 -75z"/>
<path d="M1760 765 l0 -235 93 0 c117 0 162 13 208 59 40 40 69 117 69 182 0
50 -26 126 -57 168 -38 49 -76 61 -203 61 l-110 0 0 -235z m255 145 c33 -31
59 -119 51 -173 -17 -103 -79 -151 -186 -145 l-55 3 -3 174 -2 173 84 -3 c73
-4 88 -7 111 -29z"/>
<path d="M2160 830 c0 -185 4 -203 57 -251 41 -39 66 -49 119 -49 61 0 122 35
152 88 20 37 22 52 22 211 l0 171 -30 0 -30 0 0 -171 0 -171 -34 -34 c-29 -29
-41 -34 -79 -34 -38 0 -52 6 -80 33 -43 40 -50 75 -45 250 l3 127 -27 0 -28 0
0 -170z"/>
<path d="M2702 928 c-53 -127 -154 -373 -159 -385 -4 -9 5 -13 26 -13 29 0 34
5 53 50 l21 50 102 0 103 0 21 -50 c19 -44 25 -50 51 -50 17 0 30 2 30 4 0 5
-113 279 -162 394 -17 39 -36 72 -43 72 -7 0 -27 -33 -43 -72z m82 -147 c20
-45 36 -85 36 -87 0 -2 -34 -4 -76 -4 -57 0 -75 3 -71 13 24 61 71 167 73 164
2 -1 19 -40 38 -86z"/>
<path d="M2980 765 l0 -235 30 0 30 0 0 172 c0 115 3 169 10 162 6 -6 59 -82
118 -170 99 -145 111 -159 138 -159 l29 0 3 233 2 232 -30 0 -30 0 0 -170 c0
-93 -3 -170 -7 -169 -5 0 -57 76 -118 169 -105 162 -111 170 -142 170 l-33 0
0 -235z"/>
<path d="M3557 993 c-9 -14 -187 -451 -187 -458 0 -3 14 -5 31 -3 27 3 34 9
48 48 l17 45 101 3 102 3 26 -51 c20 -40 30 -50 50 -50 14 0 25 5 25 12 0 6
-41 112 -92 235 -83 199 -106 241 -121 216z m54 -208 c16 -38 29 -75 29 -82 0
-9 -20 -13 -71 -13 -64 0 -70 2 -65 18 37 100 61 152 68 150 5 -2 23 -35 39
-73z"/>
<path d="M3810 765 l0 -235 125 0 125 0 0 33 0 32 -92 0 -93 0 -3 203 -2 202
-30 0 -30 0 0 -235z"/>
<path d="M1508 429 c-11 -6 -18 -22 -18 -39 0 -24 7 -33 40 -50 41 -21 51 -45
28 -68 -19 -19 -44 -14 -61 11 -9 12 -16 17 -16 10 -1 -19 29 -43 53 -43 30 0
46 18 46 52 0 22 -8 32 -41 48 -31 16 -40 26 -37 43 4 29 44 35 64 10 13 -17
14 -17 8 0 -4 10 -15 22 -25 27 -21 12 -20 12 -41 -1z"/>
<path d="M1635 415 c-33 -32 -36 -114 -5 -145 49 -49 104 -7 102 78 0 37 -5
51 -27 69 -33 29 -40 29 -70 -2z m75 -14 c15 -29 12 -93 -6 -119 -46 -67 -110
31 -72 113 14 31 62 35 78 6z"/>
<path d="M2040 432 c-28 -8 -40 -35 -40 -87 0 -59 21 -95 54 -95 25 0 56 28
56 51 -1 8 -8 2 -16 -13 -18 -34 -47 -36 -68 -6 -18 26 -21 90 -6 119 16 29
56 24 74 -8 9 -17 15 -22 16 -12 0 32 -39 61 -70 51z"/>
<path d="M2140 345 c0 -57 4 -95 10 -95 6 0 10 38 10 95 0 57 -4 95 -10 95 -6
0 -10 -38 -10 -95z"/>
<path d="M2215 415 c-20 -19 -25 -34 -25 -72 0 -61 21 -93 60 -93 39 0 63 37
63 97 0 38 -5 50 -27 70 -34 29 -41 29 -71 -2z m75 -14 c16 -31 12 -102 -7
-123 -51 -56 -108 36 -71 117 14 31 62 35 78 6z"/>
<path d="M2626 424 c-29 -28 -20 -62 22 -81 42 -20 51 -57 19 -77 -15 -9 -22
-7 -38 13 -12 14 -19 18 -19 9 0 -34 53 -51 78 -26 7 7 12 25 12 40 0 22 -8
32 -41 48 -31 16 -40 26 -37 43 4 29 47 36 65 11 7 -10 13 -13 13 -7 0 13 -33
43 -48 43 -6 0 -18 -7 -26 -16z"/>
<path d="M3818 429 c-11 -6 -18 -22 -18 -39 0 -24 7 -33 40 -50 41 -21 51 -45
28 -68 -18 -18 -46 -14 -58 9 -7 11 -14 18 -17 15 -11 -10 29 -46 52 -46 29 0
45 19 45 52 0 22 -8 32 -41 48 -31 16 -40 26 -37 43 4 29 44 35 64 10 13 -17
14 -17 8 0 -4 10 -15 22 -25 27 -21 12 -20 12 -41 -1z"/>
<path d="M1772 343 l-2 -93 38 2 c36 1 36 1 5 5 l-32 4 -4 87 -3 87 -2 -92z"/>
<path d="M1872 348 c-2 -87 -2 -88 25 -94 47 -12 58 5 59 92 l0 79 -3 -77 c-4
-74 -5 -78 -29 -84 -14 -4 -29 -3 -34 2 -5 5 -11 45 -13 89 l-3 80 -2 -87z"/>
<path d="M2352 338 l2 -93 5 80 6 80 37 -77 c20 -43 42 -78 48 -78 6 0 10 34
10 90 0 59 -4 90 -11 90 -8 0 -10 -23 -7 -70 2 -38 1 -70 -2 -70 -3 0 -21 32
-40 70 -19 39 -37 70 -42 70 -4 0 -7 -42 -6 -92z"/>
<path d="M2500 340 l0 -90 43 2 42 1 -37 4 c-37 4 -38 6 -38 43 0 37 1 39 38
43 l37 4 -37 1 c-36 2 -38 4 -38 36 0 32 3 35 33 39 31 4 31 4 -5 5 l-38 2 0
-90z"/>
<path d="M2800 358 c-11 -40 -23 -81 -26 -90 -3 -10 -1 -18 5 -18 5 0 11 12
13 28 2 22 9 28 34 30 27 3 33 -1 42 -27 22 -62 19 -29 -4 52 -13 45 -24 85
-24 90 0 4 -4 7 -9 7 -5 0 -19 -33 -31 -72z m40 33 c0 -5 3 -23 6 -40 6 -28 4
-31 -19 -31 -24 0 -25 1 -15 40 6 22 14 40 19 40 5 0 9 -4 9 -9z"/>
<path d="M2910 340 l0 -90 30 0 c48 0 80 39 80 95 0 57 -25 85 -75 85 l-35 0
0 -90z m84 58 c37 -53 5 -144 -47 -136 -20 3 -22 9 -25 81 l-3 77 30 0 c20 0
35 -8 45 -22z"/>
<path d="M3062 348 c-2 -87 -2 -88 25 -94 47 -12 58 5 59 92 l0 79 -3 -77 c-4
-74 -5 -78 -29 -84 -14 -4 -29 -3 -34 2 -5 5 -11 45 -13 89 l-3 80 -2 -87z"/>
<path d="M3210 388 c-6 -24 -18 -63 -25 -87 -18 -52 -17 -51 -6 -51 5 0 11 14
15 30 5 25 10 30 35 30 24 0 31 -6 40 -32 6 -17 13 -29 15 -27 7 7 -47 179
-55 179 -5 0 -13 -19 -19 -42z m30 3 c0 -5 3 -23 6 -40 6 -27 4 -31 -15 -31
-23 0 -24 3 -15 49 6 28 24 45 24 22z"/>
<path d="M3312 338 l2 -93 3 78 c2 42 7 77 11 77 4 0 22 -34 41 -75 18 -41 37
-75 42 -75 5 0 8 42 7 93 l-2 92 -5 -75 -6 -75 -38 73 c-20 39 -42 72 -47 72
-6 0 -9 -37 -8 -92z"/>
<path d="M3490 415 c0 -8 4 -15 9 -15 5 0 12 -11 15 -24 3 -13 9 -31 12 -40 5
-12 0 -16 -21 -16 -26 0 -27 2 -22 38 5 30 2 27 -13 -18 -10 -30 -19 -64 -18
-75 0 -13 4 -8 10 13 9 26 16 32 38 32 22 0 30 -6 39 -30 11 -32 26 -43 17
-12 -36 123 -49 162 -57 162 -5 0 -9 -7 -9 -15z"/>
<path d="M3592 343 l-2 -93 38 2 c36 1 36 1 5 5 l-32 4 -4 87 -3 87 -2 -92z"/>
<path d="M3680 340 l0 -90 43 2 c36 1 38 2 10 5 -31 4 -33 7 -33 43 0 37 1 39
38 43 l37 4 -37 1 c-36 2 -38 4 -38 36 0 32 3 35 33 39 28 3 26 4 -10 5 l-43
2 0 -90z"/>
</g>
</svg>
